<svg xmlns="http://www.w3.org/2000/svg" version="1.1" xmlns:xlink="http://www.w3.org/1999/xlink" xmlns:svgjs="http://svgjs.dev/svgjs" width="2000" height="651" viewBox="0 0 2000 651"><g transform="matrix(1,0,0,1,-1.2112696095522324,-0.30389623338231786)"><svg viewBox="0 0 396 129" data-background-color="#282634" preserveAspectRatio="xMidYMid meet" height="651" width="2000" xmlns="http://www.w3.org/2000/svg" xmlns:xlink="http://www.w3.org/1999/xlink"><g id="tight-bounds" transform="matrix(1,0,0,1,0.24008861730862918,0.060320799910982714)"><svg viewBox="0 0 395.52 128.8794109350464" height="128.8794109350464" width="395.52"><g><svg viewBox="0 0 395.52 128.8794109350464" height="128.8794109350464" width="395.52"><g><svg viewBox="0 0 395.52 128.8794109350464" height="128.8794109350464" width="395.52"><g id="textblocktransform"><svg viewBox="0 0 395.52 128.8794109350464" height="128.8794109350464" width="395.52" id="textblock"><g><svg viewBox="0 0 395.52 128.8794109350464" height="128.8794109350464" width="395.52"><path d="M394.594 27.642C392.735 14.265 387.435 10.546 387.435 10.546 371.165-3.233 350.86-0.264 332.619 1.716 300.414 1.797 268.339 4.74 236.208 6.318 168.767 6.559 100.749 2.599 33.643 12.365 27.339 15.361-6.54 12.954 1.121 29.355 3.129 36.177 10.456 43.749 10.232 50.01 11.236 51.107 12.631 48.592 13.226 50.17 15.309 54.424 18.711 52.418 21.501 54.933 17.614 61.648 20.403 67.24 23.062 73.099 18.377 74.624 12.371 73.902 9.675 78.959 9.396 82.624 7.89 81.929 6.235 81.768 5.026 81.661 2.59 82.062 2.999 83.213 4.394 87.146-1.594 89.42 2.162 93.273-0.422 97.447 3.948 101.059 3.353 105.58 3.278 106.49 3.687 107.266 4.338 107.48 7.22 108.63 3.018 110.878 3.464 113.313 33.029 129.954 65.104 118.45 95.394 126.102 103.259 120.751 97.346 128.001 100.489 126.877 102.943 125.566 104.728 130.998 107.499 127.921 107.927 127.038 107.276 124.951 108.8 125.352 109.6 125.566 110.307 125.513 110.418 124.282 110.586 122.436 109.117 123.587 108.726 122.623 112.947 117.754 111.906 129.339 115.866 128.857 115.68 127.439 114.528 125.406 116.889 125.673 119.232 123.64 119.306 121.955 121.389 126.53 121.463 127.52 121.835 128.215 122.43 128.697 128.938 123.72 135.409 130.463 142.233 128.215 146.417 125.754 150.433 129.553 154.672 128.617 156.16 127.867 157.666 126.53 159.098 128.777 176.632 129.259 195.319 127.252 211.943 128.857 256.364 125.861 303.836 130.088 350.674 126.128 361.719 124.603 373.192 122.436 383.958 120.697 383.958 120.697 392.679 115.935 392.679 94.53S394.538 75.802 394.817 58.759C395.096 41.715 396.398 41.02 394.538 27.642Z" opacity="1" fill="#ff4057" data-fill-palette-color="tertiary"></path><g transform="matrix(1,0,0,1,55.76832,26.230666666666668)"><svg width="283.98335999999995" viewBox="4 -37.5 140.09 37.7" height="76.41807760171305" data-palette-color="#282634"><path d="M23.2-3L22.95 0 4 0 4-35 7.4-35 7.4-3 23.2-3ZM27.6-19.9L26.7-22.3Q32.15-25 36.25-25.15L36.25-25.15Q39.5-25.15 41.27-24.33 43.05-23.5 44.15-22.03 45.25-20.55 45.25-17.9L45.25-17.9 45.25 0 42 0 42-1.9Q35.15 0.2 33.2 0.2L33.2 0.2Q33.1 0.2 33.05 0.2L33.05 0.2Q28.55 0.2 26.9-2.55L26.9-2.55Q26.3-3.55 26.22-4.5 26.15-5.45 26.15-6.1L26.15-6.1Q26.15-7.9 27.55-9.33 28.95-10.75 30.9-11.25L30.9-11.25Q34.2-12.1 42-12.75L42-12.75 42-16.8Q42-22.25 36.3-22.25L36.3-22.25Q32.3-22.25 27.6-19.9L27.6-19.9ZM29.2-5.7L29.2-5.7Q29.2-2.1 34.15-2.1L34.15-2.1Q38.1-2.1 42-3.8L42-3.8 42-10.95Q34.2-9.85 32.35-9.25L32.35-9.25Q29.2-8.25 29.2-5.7ZM53.5-25.25L53.5-22.25Q57.25-25 60.6-25.15L60.6-25.15Q63.65-25.15 65.3-24.4 66.95-23.65 68.02-22.28 69.09-20.9 69.09-18.4L69.09-18.4 69.09 0 65.84 0 65.84-17.55Q65.84-19.4 65.05-20.4L65.05-20.4Q63.45-22.25 60.15-22.25L60.15-22.25Q57-22.1 53.5-20.2L53.5-20.2 53.5 0 50.25 0 50.25-25 53.5-25.25ZM86.99-25.25L86.99-25.25Q89.94-25.25 92.59-23.5L92.59-23.5 92.59-37.25 95.84-37.5 95.84-1.15 95.59-1.15Q94.04-0.5 90.42-0.15 86.79 0.2 85.39 0.2L85.39 0.2Q81.19 0.2 78.44-1.9L78.44-1.9Q74.59-4.8 74.59-11.45 74.59-18.1 78.17-21.68 81.74-25.25 86.99-25.25ZM92.59-3.2L92.59-21.35Q90.09-22.3 87.69-22.3L87.69-22.3Q83.09-22.3 80.47-19.5 77.84-16.7 77.84-11.55 77.84-6.4 80.69-4.3L80.69-4.3Q82.74-2.7 85.87-2.7 88.99-2.7 92.59-3.2L92.59-3.2ZM102.94-12.3L102.94-11.5Q102.94-2.7 111.34-2.7L111.34-2.7Q114.89-2.7 117.84-3.65L117.84-3.65Q118.59-3.9 118.89-4.05L118.89-4.05 119.64-1.4Q117.89-0.35 113.29 0.1L113.29 0.1Q111.99 0.2 110.54 0.2L110.54 0.2Q106.34 0.2 103.54-1.9L103.54-1.9Q99.69-4.75 99.69-11.4 99.69-18.05 103.16-21.63 106.64-25.2 111.59-25.2 116.54-25.2 119.04-22L119.04-22Q120.94-19.45 120.94-15.25L120.94-15.25Q120.94-14.25 120.84-13.15L120.84-13.15 102.99-13.15Q102.94-12.75 102.94-12.3L102.94-12.3ZM111.79-22.1L111.79-22.1Q108.69-22.1 106.49-20.23 104.29-18.35 103.44-15.4L103.44-15.4 117.99-15.4Q117.74-20.95 113.69-21.85L113.69-21.85Q112.79-22.1 111.79-22.1ZM128.49-25.25L128.49-22.25Q132.24-25 135.59-25.15L135.59-25.15Q138.64-25.15 140.29-24.4 141.94-23.65 143.01-22.28 144.09-20.9 144.09-18.4L144.09-18.4 144.09 0 140.84 0 140.84-17.55Q140.84-19.4 140.04-20.4L140.04-20.4Q138.44-22.25 135.14-22.25L135.14-22.25Q131.99-22.1 128.49-20.2L128.49-20.2 128.49 0 125.24 0 125.24-25 128.49-25.25Z" opacity="1" transform="matrix(1,0,0,1,0,0)" fill="#282634" class="wordmark-text-0" data-fill-palette-color="quaternary" id="text-0"></path></svg></g></svg></g></svg></g></svg></g><g></g></svg></g><defs></defs></svg><rect width="395.52" height="128.8794109350464" fill="none" stroke="none" visibility="hidden"></rect></g></svg></g></svg>